<svg id="instagram" xmlns="http://www.w3.org/2000/svg" width="23.175" height="23.179" viewBox="0 0 23.175 23.179">
  <path id="Caminho_1" data-name="Caminho 1" d="M23.565,6.815A8.47,8.47,0,0,0,23.026,4,5.938,5.938,0,0,0,19.634.611,8.492,8.492,0,0,0,16.822.073C15.582.014,15.188,0,12.041,0S8.5.014,7.263.068A8.472,8.472,0,0,0,4.452.607,5.656,5.656,0,0,0,2.4,1.947,5.707,5.707,0,0,0,1.06,4,8.493,8.493,0,0,0,.521,6.81C.462,8.051.449,8.445.449,11.592s.014,3.541.068,4.777a8.469,8.469,0,0,0,.539,2.812,5.937,5.937,0,0,0,3.391,3.391,8.493,8.493,0,0,0,2.812.539c1.236.054,1.63.068,4.777.068s3.541-.013,4.777-.068a8.468,8.468,0,0,0,2.812-.539,5.929,5.929,0,0,0,3.392-3.391,8.5,8.5,0,0,0,.539-2.812c.054-1.236.068-1.63.068-4.777s0-3.541-.059-4.777Zm-2.087,9.464a6.353,6.353,0,0,1-.4,2.151,3.845,3.845,0,0,1-2.2,2.2,6.376,6.376,0,0,1-2.151.4c-1.223.054-1.589.068-4.682.068s-3.464-.013-4.682-.068a6.35,6.35,0,0,1-2.151-.4,3.567,3.567,0,0,1-1.331-.865,3.6,3.6,0,0,1-.865-1.331,6.377,6.377,0,0,1-.4-2.151c-.054-1.223-.068-1.589-.068-4.682s.013-3.464.068-4.682a6.35,6.35,0,0,1,.4-2.151,3.523,3.523,0,0,1,.87-1.331,3.6,3.6,0,0,1,1.331-.865,6.38,6.38,0,0,1,2.151-.4c1.223-.054,1.589-.068,4.682-.068s3.464.014,4.682.068a6.353,6.353,0,0,1,2.151.4,3.564,3.564,0,0,1,1.331.865,3.6,3.6,0,0,1,.865,1.331,6.379,6.379,0,0,1,.4,2.151c.054,1.223.068,1.589.068,4.682s-.014,3.455-.068,4.678Zm0,0" transform="translate(-0.449 0)" fill="#fff"/>
  <path id="Caminho_2" data-name="Caminho 2" d="M130.9,124.5a5.954,5.954,0,1,0,5.954,5.954A5.956,5.956,0,0,0,130.9,124.5Zm0,9.817a3.863,3.863,0,1,1,3.863-3.863A3.863,3.863,0,0,1,130.9,134.317Zm0,0" transform="translate(-119.311 -118.862)" fill="#fff"/>
  <path id="Caminho_3" data-name="Caminho 3" d="M365.23,89.992a1.39,1.39,0,1,1-1.39-1.39A1.39,1.39,0,0,1,365.23,89.992Zm0,0" transform="translate(-346.058 -84.59)" fill="#fff"/>
</svg>
