<svg xmlns="http://www.w3.org/2000/svg" width="23.441" height="20.511" viewBox="0 0 23.441 20.511">
  <path id="vimeo" d="M20.019,1.5c-3.25-.118-5.446,1.745-6.6,5.561a4.212,4.212,0,0,1,1.736-.386c1.191,0,1.717.681,1.576,2.033a9.3,9.3,0,0,1-1.574,3.579q-1.478,2.351-2.212,2.353c-1.487,0-2.38-7.114-2.683-9.057Q9.626,1.538,6.891,1.8C5.217,1.961,2.3,4.975,0,7.018L1.1,8.456A7.223,7.223,0,0,1,2.94,7.339c1.827,0,2.712,6.219,4.131,10.843.952,2.552,2.094,3.829,3.47,3.829q3.317,0,8.1-6.284,4.622-6.017,4.78-9.479l.013-.01c.131-3.091-1-4.673-3.412-4.733Z" transform="translate(0 -1.5)" fill="#fff"/>
</svg>
