<svg xmlns="http://www.w3.org/2000/svg" width="23.179" height="23.179" viewBox="0 0 23.179 23.179">
  <path id="spotify" d="M11.59,23.179A11.59,11.59,0,1,0,0,11.59,11.594,11.594,0,0,0,11.59,23.179ZM16.3,17.052h0c-.779,0-3.241-2.731-10.16-1.314a2.983,2.983,0,0,1-.556.122.767.767,0,0,1-.1-1.524c3.827-.845,7.739-.771,11.075,1.225a.778.778,0,0,1-.256,1.49Zm1.258-3.065c-.109-.029-.077.067-.577-.2a15.144,15.144,0,0,0-11.15-1.374,1.92,1.92,0,0,1-.556.122.95.95,0,0,1-.182-1.874,16.93,16.93,0,0,1,12.842,1.49.975.975,0,0,1,.528.92A.906.906,0,0,1,17.554,13.988ZM4.392,6.759c4.368-1.279,10.979-.875,15.09,1.524A1.136,1.136,0,0,1,19,10.427h0a1.076,1.076,0,0,1-.6-.183C15.071,8.258,9.121,7.782,5.271,8.856a2.249,2.249,0,0,1-.6.121,1.078,1.078,0,0,1-1.088-1.1,1.1,1.1,0,0,1,.813-1.116Z" fill="#fff"/>
</svg>
