<svg xmlns="http://www.w3.org/2000/svg" width="26.488" height="18.546" viewBox="0 0 26.488 18.546">
  <path id="youtube" d="M25.943-3.18a3.318,3.318,0,0,0-2.334-2.335c-2.073-.567-10.364-.567-10.364-.567s-8.291,0-10.364.546A3.386,3.386,0,0,0,.546-3.18,34.966,34.966,0,0,0,0,3.191,34.837,34.837,0,0,0,.546,9.562,3.319,3.319,0,0,0,2.881,11.9c2.094.567,10.364.567,10.364.567s8.291,0,10.364-.546a3.319,3.319,0,0,0,2.335-2.334,34.977,34.977,0,0,0,.545-6.371,33.191,33.191,0,0,0-.546-6.393ZM10.6,7.162V-.78L17.5,3.191Zm0,0" transform="translate(-0.001 6.082)" fill="#fff"/>
</svg>
